<mxfile host="app.diagrams.net" agent="Mozilla/5.0 (Windows NT 10.0; Win64; x64) AppleWebKit/537.36 (KHTML, like Gecko) Chrome/109.0.0.0 Safari/537.36" version="28.0.1" pages="2">
  <diagram id="C5RBs43oDa-KdzZeNtuy" name="Page-1">
    <mxGraphModel dx="1240" dy="697" grid="1" gridSize="10" guides="1" tooltips="1" connect="1" arrows="1" fold="1" page="1" pageScale="1" pageWidth="827" pageHeight="1169" math="0" shadow="0">
      <root>
        <mxCell id="WIyWlLk6GJQsqaUBKTNV-0" />
        <mxCell id="WIyWlLk6GJQsqaUBKTNV-1" parent="WIyWlLk6GJQsqaUBKTNV-0" />
        <mxCell id="KCkPADtTCZ_rkdT2uJ9H-2" value="&lt;font style=&quot;font-size: 16px;&quot;&gt;党建积分获取和消费流程&lt;/font&gt;" style="swimlane;whiteSpace=wrap;html=1;" vertex="1" parent="WIyWlLk6GJQsqaUBKTNV-1">
          <mxGeometry x="320" y="40" width="640" height="677.5" as="geometry" />
        </mxCell>
        <mxCell id="KCkPADtTCZ_rkdT2uJ9H-3" value="用户" style="rounded=0;whiteSpace=wrap;html=1;" vertex="1" parent="KCkPADtTCZ_rkdT2uJ9H-2">
          <mxGeometry x="20" y="22.5" width="300" height="57.5" as="geometry" />
        </mxCell>
        <mxCell id="KCkPADtTCZ_rkdT2uJ9H-4" value="服务区、热心商家" style="rounded=0;whiteSpace=wrap;html=1;" vertex="1" parent="KCkPADtTCZ_rkdT2uJ9H-2">
          <mxGeometry x="320" y="22.5" width="300" height="57.5" as="geometry" />
        </mxCell>
        <mxCell id="KCkPADtTCZ_rkdT2uJ9H-5" value="" style="rounded=0;whiteSpace=wrap;html=1;" vertex="1" parent="KCkPADtTCZ_rkdT2uJ9H-2">
          <mxGeometry x="20" y="80" width="300" height="580" as="geometry" />
        </mxCell>
        <mxCell id="KCkPADtTCZ_rkdT2uJ9H-6" value="" style="rounded=0;whiteSpace=wrap;html=1;" vertex="1" parent="KCkPADtTCZ_rkdT2uJ9H-2">
          <mxGeometry x="320" y="80" width="300" height="580" as="geometry" />
        </mxCell>
        <mxCell id="WIyWlLk6GJQsqaUBKTNV-2" value="" style="rounded=0;html=1;jettySize=auto;orthogonalLoop=1;fontSize=11;endArrow=block;endFill=0;endSize=8;strokeWidth=1;shadow=0;labelBackgroundColor=none;edgeStyle=orthogonalEdgeStyle;entryX=0.5;entryY=0;entryDx=0;entryDy=0;" parent="KCkPADtTCZ_rkdT2uJ9H-2" source="WIyWlLk6GJQsqaUBKTNV-3" target="ZTDsinw6wsql2p8PFBgf-0" edge="1">
          <mxGeometry relative="1" as="geometry">
            <mxPoint x="170" y="180" as="targetPoint" />
          </mxGeometry>
        </mxCell>
        <mxCell id="WIyWlLk6GJQsqaUBKTNV-3" value="用户登录" style="rounded=1;whiteSpace=wrap;html=1;fontSize=12;glass=0;strokeWidth=1;shadow=0;" parent="KCkPADtTCZ_rkdT2uJ9H-2" vertex="1">
          <mxGeometry x="120" y="90" width="100" height="30" as="geometry" />
        </mxCell>
        <mxCell id="ZTDsinw6wsql2p8PFBgf-6" style="edgeStyle=orthogonalEdgeStyle;rounded=0;orthogonalLoop=1;jettySize=auto;html=1;exitX=0.5;exitY=1;exitDx=0;exitDy=0;entryX=0.5;entryY=0;entryDx=0;entryDy=0;" edge="1" parent="KCkPADtTCZ_rkdT2uJ9H-2" source="ZTDsinw6wsql2p8PFBgf-0" target="ZTDsinw6wsql2p8PFBgf-5">
          <mxGeometry relative="1" as="geometry" />
        </mxCell>
        <mxCell id="ZTDsinw6wsql2p8PFBgf-0" value="身份认证、注册登录、学习签到、党建学习等活动" style="rounded=0;whiteSpace=wrap;html=1;" vertex="1" parent="KCkPADtTCZ_rkdT2uJ9H-2">
          <mxGeometry x="110" y="150" width="120" height="60" as="geometry" />
        </mxCell>
        <mxCell id="ZTDsinw6wsql2p8PFBgf-7" style="edgeStyle=orthogonalEdgeStyle;rounded=0;orthogonalLoop=1;jettySize=auto;html=1;exitX=0.5;exitY=1;exitDx=0;exitDy=0;entryX=0.5;entryY=0;entryDx=0;entryDy=0;" edge="1" parent="KCkPADtTCZ_rkdT2uJ9H-2" source="ZTDsinw6wsql2p8PFBgf-5" target="ZTDsinw6wsql2p8PFBgf-9">
          <mxGeometry relative="1" as="geometry">
            <mxPoint x="170" y="370" as="targetPoint" />
          </mxGeometry>
        </mxCell>
        <mxCell id="ZTDsinw6wsql2p8PFBgf-8" value="yes" style="edgeLabel;html=1;align=center;verticalAlign=middle;resizable=0;points=[];" vertex="1" connectable="0" parent="ZTDsinw6wsql2p8PFBgf-7">
          <mxGeometry x="-0.0496" y="-4" relative="1" as="geometry">
            <mxPoint as="offset" />
          </mxGeometry>
        </mxCell>
        <mxCell id="ZTDsinw6wsql2p8PFBgf-10" style="edgeStyle=orthogonalEdgeStyle;rounded=0;orthogonalLoop=1;jettySize=auto;html=1;exitX=0;exitY=0.5;exitDx=0;exitDy=0;entryX=0;entryY=0.5;entryDx=0;entryDy=0;" edge="1" parent="KCkPADtTCZ_rkdT2uJ9H-2" source="ZTDsinw6wsql2p8PFBgf-5" target="ZTDsinw6wsql2p8PFBgf-0">
          <mxGeometry relative="1" as="geometry">
            <Array as="points">
              <mxPoint x="70" y="270" />
              <mxPoint x="70" y="180" />
            </Array>
          </mxGeometry>
        </mxCell>
        <mxCell id="ZTDsinw6wsql2p8PFBgf-11" value="no" style="edgeLabel;html=1;align=center;verticalAlign=middle;resizable=0;points=[];" vertex="1" connectable="0" parent="ZTDsinw6wsql2p8PFBgf-10">
          <mxGeometry x="0.0198" y="1" relative="1" as="geometry">
            <mxPoint as="offset" />
          </mxGeometry>
        </mxCell>
        <mxCell id="ZTDsinw6wsql2p8PFBgf-5" value="判断积分获取条件是否满足" style="rhombus;whiteSpace=wrap;html=1;" vertex="1" parent="KCkPADtTCZ_rkdT2uJ9H-2">
          <mxGeometry x="125" y="240" width="90" height="60" as="geometry" />
        </mxCell>
        <mxCell id="KCkPADtTCZ_rkdT2uJ9H-8" value="" style="edgeStyle=orthogonalEdgeStyle;rounded=0;orthogonalLoop=1;jettySize=auto;html=1;entryX=0;entryY=0.5;entryDx=0;entryDy=0;" edge="1" parent="KCkPADtTCZ_rkdT2uJ9H-2" source="ZTDsinw6wsql2p8PFBgf-9" target="KCkPADtTCZ_rkdT2uJ9H-7">
          <mxGeometry relative="1" as="geometry" />
        </mxCell>
        <mxCell id="ZTDsinw6wsql2p8PFBgf-9" value="用户积分奖励，累积积分值，积分商城兑换商品或优惠券" style="rounded=0;whiteSpace=wrap;html=1;" vertex="1" parent="KCkPADtTCZ_rkdT2uJ9H-2">
          <mxGeometry x="110" y="340" width="120" height="60" as="geometry" />
        </mxCell>
        <mxCell id="KCkPADtTCZ_rkdT2uJ9H-10" value="" style="edgeStyle=orthogonalEdgeStyle;rounded=0;orthogonalLoop=1;jettySize=auto;html=1;exitX=0.5;exitY=1;exitDx=0;exitDy=0;entryX=0.5;entryY=0;entryDx=0;entryDy=0;" edge="1" parent="KCkPADtTCZ_rkdT2uJ9H-2" source="KCkPADtTCZ_rkdT2uJ9H-7" target="KCkPADtTCZ_rkdT2uJ9H-12">
          <mxGeometry relative="1" as="geometry">
            <mxPoint x="170.00000000000023" y="485" as="targetPoint" />
          </mxGeometry>
        </mxCell>
        <mxCell id="KCkPADtTCZ_rkdT2uJ9H-7" value="小程序端扫码核销订单" style="shape=process;whiteSpace=wrap;html=1;backgroundOutline=1;" vertex="1" parent="KCkPADtTCZ_rkdT2uJ9H-2">
          <mxGeometry x="400" y="340" width="120" height="60" as="geometry" />
        </mxCell>
        <mxCell id="KCkPADtTCZ_rkdT2uJ9H-21" style="edgeStyle=orthogonalEdgeStyle;rounded=0;orthogonalLoop=1;jettySize=auto;html=1;exitX=1;exitY=0.5;exitDx=0;exitDy=0;entryX=1;entryY=0.5;entryDx=0;entryDy=0;" edge="1" parent="KCkPADtTCZ_rkdT2uJ9H-2" source="KCkPADtTCZ_rkdT2uJ9H-12" target="KCkPADtTCZ_rkdT2uJ9H-7">
          <mxGeometry relative="1" as="geometry" />
        </mxCell>
        <mxCell id="KCkPADtTCZ_rkdT2uJ9H-22" value="no" style="edgeLabel;html=1;align=center;verticalAlign=middle;resizable=0;points=[];" vertex="1" connectable="0" parent="KCkPADtTCZ_rkdT2uJ9H-21">
          <mxGeometry x="0.0198" y="-3" relative="1" as="geometry">
            <mxPoint as="offset" />
          </mxGeometry>
        </mxCell>
        <mxCell id="KCkPADtTCZ_rkdT2uJ9H-12" value="核销成功" style="rhombus;whiteSpace=wrap;html=1;" vertex="1" parent="KCkPADtTCZ_rkdT2uJ9H-2">
          <mxGeometry x="132.5" y="440" width="75" height="50" as="geometry" />
        </mxCell>
        <mxCell id="KCkPADtTCZ_rkdT2uJ9H-13" value="结束" style="rounded=1;whiteSpace=wrap;html=1;" vertex="1" parent="KCkPADtTCZ_rkdT2uJ9H-2">
          <mxGeometry x="130" y="600" width="80" height="30" as="geometry" />
        </mxCell>
        <mxCell id="KCkPADtTCZ_rkdT2uJ9H-18" style="edgeStyle=orthogonalEdgeStyle;rounded=0;orthogonalLoop=1;jettySize=auto;html=1;exitX=0.5;exitY=1;exitDx=0;exitDy=0;entryX=0.5;entryY=0;entryDx=0;entryDy=0;" edge="1" parent="KCkPADtTCZ_rkdT2uJ9H-2" source="KCkPADtTCZ_rkdT2uJ9H-12" target="KCkPADtTCZ_rkdT2uJ9H-19">
          <mxGeometry relative="1" as="geometry" />
        </mxCell>
        <mxCell id="KCkPADtTCZ_rkdT2uJ9H-20" value="yes" style="edgeLabel;html=1;align=center;verticalAlign=middle;resizable=0;points=[];" vertex="1" connectable="0" parent="KCkPADtTCZ_rkdT2uJ9H-18">
          <mxGeometry x="-0.0022" relative="1" as="geometry">
            <mxPoint as="offset" />
          </mxGeometry>
        </mxCell>
        <mxCell id="KCkPADtTCZ_rkdT2uJ9H-23" style="edgeStyle=orthogonalEdgeStyle;rounded=0;orthogonalLoop=1;jettySize=auto;html=1;exitX=0.5;exitY=1;exitDx=0;exitDy=0;entryX=0.5;entryY=0;entryDx=0;entryDy=0;" edge="1" parent="KCkPADtTCZ_rkdT2uJ9H-2" source="KCkPADtTCZ_rkdT2uJ9H-19" target="KCkPADtTCZ_rkdT2uJ9H-13">
          <mxGeometry relative="1" as="geometry" />
        </mxCell>
        <mxCell id="KCkPADtTCZ_rkdT2uJ9H-19" value="积分扣减，更改核销订单状态" style="rounded=0;whiteSpace=wrap;html=1;" vertex="1" parent="KCkPADtTCZ_rkdT2uJ9H-2">
          <mxGeometry x="115" y="519.5" width="110" height="50" as="geometry" />
        </mxCell>
      </root>
    </mxGraphModel>
  </diagram>
  <diagram id="2NNxlULtipxcMlKcX8eM" name="第 2 页">
    <mxGraphModel grid="1" page="1" gridSize="10" guides="1" tooltips="1" connect="1" arrows="1" fold="1" pageScale="1" pageWidth="827" pageHeight="1169" math="0" shadow="0">
      <root>
        <mxCell id="0" />
        <mxCell id="1" parent="0" />
      </root>
    </mxGraphModel>
  </diagram>
</mxfile>
